<svg width="96" height="96" viewBox="0 0 96 96" fill="none" xmlns="http://www.w3.org/2000/svg">
  <!-- Data plate icon -->
  <rect width="96" height="96" fill="transparent"/>
  
  <!-- Plate background -->
  <rect x="20" y="20" width="56" height="56" rx="3" fill="#FDE68A" opacity="0.9"/>
  <rect x="22" y="22" width="52" height="52" rx="2" fill="#FFF"/>
  
  <!-- Plate border -->
  <rect x="20" y="20" width="56" height="56" rx="3" stroke="#F76511" stroke-width="2" fill="none"/>
  
  <!-- Rivets in corners -->
  <circle cx="26" cy="26" r="2" fill="#6B7280"/>
  <circle cx="70" cy="26" r="2" fill="#6B7280"/>
  <circle cx="26" cy="70" r="2" fill="#6B7280"/>
  <circle cx="70" cy="70" r="2" fill="#6B7280"/>
  
  <!-- Text lines (capacity info) -->
  <rect x="28" y="30" width="30" height="3" rx="1" fill="#0F172A" opacity="0.7"/>
  <rect x="28" y="38" width="40" height="3" rx="1" fill="#0F172A" opacity="0.7"/>
  
  <!-- Capacity numbers (stylized) -->
  <text x="32" y="52" font-size="14" font-weight="bold" fill="#F76511">3000</text>
  <text x="32" y="62" font-size="8" fill="#0F172A" opacity="0.6">LBS @ 24"</text>
  
  <!-- Warning icon -->
  <path d="M64 54 L68 62 L60 62 Z" fill="#F76511"/>
  <circle cx="64" cy="64" r="1" fill="#F76511"/>
  
  <!-- Magnifying glass (legible emphasis) -->
  <circle cx="70" cy="50" r="8" stroke="#10B981" stroke-width="2" fill="none"/>
  <line x1="76" y1="56" x2="82" y2="62" stroke="#10B981" stroke-width="2" stroke-linecap="round"/>
</svg>

