<svg width="96" height="96" viewBox="0 0 96 96" fill="none" xmlns="http://www.w3.org/2000/svg">
  <!-- Inspection checklist icon -->
  <rect width="96" height="96" fill="transparent"/>
  
  <!-- Clipboard -->
  <rect x="25" y="15" width="46" height="66" rx="3" fill="#0F172A" opacity="0.1"/>
  <rect x="28" y="18" width="40" height="60" rx="2" fill="#FFF"/>
  <rect x="25" y="15" width="46" height="66" rx="3" stroke="#0F172A" stroke-width="2" fill="none" opacity="0.3"/>
  
  <!-- Clip -->
  <rect x="42" y="12" width="12" height="8" rx="2" fill="#6B7280"/>
  <rect x="44" y="14" width="8" height="4" rx="1" fill="#9CA3AF"/>
  
  <!-- Checklist items -->
  <g opacity="0.8">
    <!-- Item 1 - checked -->
    <circle cx="35" cy="30" r="4" fill="#10B981"/>
    <path d="M33 30 L35 32 L37 29" stroke="#FFF" stroke-width="1.5" fill="none"/>
    <rect x="42" y="28" width="20" height="2" rx="1" fill="#0F172A" opacity="0.4"/>
    
    <!-- Item 2 - checked -->
    <circle cx="35" cy="42" r="4" fill="#10B981"/>
    <path d="M33 42 L35 44 L37 41" stroke="#FFF" stroke-width="1.5" fill="none"/>
    <rect x="42" y="40" width="24" height="2" rx="1" fill="#0F172A" opacity="0.4"/>
    
    <!-- Item 3 - checked -->
    <circle cx="35" cy="54" r="4" fill="#10B981"/>
    <path d="M33 54 L35 56 L37 53" stroke="#FFF" stroke-width="1.5" fill="none"/>
    <rect x="42" y="52" width="18" height="2" rx="1" fill="#0F172A" opacity="0.4"/>
    
    <!-- Item 4 - in progress -->
    <circle cx="35" cy="66" r="4" fill="#F76511" opacity="0.3" stroke="#F76511" stroke-width="1.5"/>
    <rect x="42" y="64" width="22" height="2" rx="1" fill="#0F172A" opacity="0.4"/>
  </g>
  
  <!-- Daily badge -->
  <circle cx="75" cy="25" r="11" fill="#F76511"/>
  <text x="75" y="30" font-size="10" font-weight="bold" text-anchor="middle" fill="#FFF">1X</text>
</svg>

