<svg width="96" height="96" viewBox="0 0 96 96" fill="none" xmlns="http://www.w3.org/2000/svg">
  <!-- Forklift lights icon -->
  <rect width="96" height="96" fill="transparent"/>
  
  <!-- Headlights (front) -->
  <circle cx="30" cy="45" r="12" fill="#F76511" opacity="0.9"/>
  <circle cx="30" cy="45" r="8" fill="#FDE68A"/>
  <circle cx="30" cy="45" r="4" fill="#FFF"/>
  
  <!-- Light rays -->
  <path d="M18 45 L8 40" stroke="#FDE68A" stroke-width="2" opacity="0.6"/>
  <path d="M18 45 L8 45" stroke="#FDE68A" stroke-width="2.5" opacity="0.7"/>
  <path d="M18 45 L8 50" stroke="#FDE68A" stroke-width="2" opacity="0.6"/>
  
  <!-- Tail light (back) -->
  <circle cx="66" cy="45" r="10" fill="#DC2626" opacity="0.9"/>
  <circle cx="66" cy="45" r="6" fill="#FCA5A5"/>
  
  <!-- Reverse beeper/strobe -->
  <rect x="54" y="65" width="24" height="12" rx="2" fill="#0F172A" opacity="0.8"/>
  <circle cx="66" cy="71" r="3" fill="#FFF"/>
  
  <!-- Sound waves from beeper -->
  <path d="M74 68 Q77 71 74 74" stroke="#F76511" stroke-width="1.5" fill="none" opacity="0.5"/>
  <path d="M76 66 Q80 71 76 76" stroke="#F76511" stroke-width="1.2" fill="none" opacity="0.3"/>
  
  <!-- Check mark indicator -->
  <circle cx="75" cy="30" r="10" fill="#10B981"/>
  <path d="M71 30 L74 33 L79 28" stroke="#FFF" stroke-width="2" stroke-linecap="round" fill="none"/>
</svg>

