<svg width="96" height="96" viewBox="0 0 96 96" fill="none" xmlns="http://www.w3.org/2000/svg">
  <!-- Safety boots icon -->
  <rect width="96" height="96" fill="transparent"/>
  
  <!-- Boot body (right boot) -->
  <path d="M35 40 L35 62 L40 68 L60 68 L62 62 L62 50 Q62 45 58 42 L50 40 Z" 
        fill="#0F172A" opacity="0.9"/>
  
  <!-- Steel toe cap -->
  <ellipse cx="50" cy="66" rx="13" ry="6" fill="#6B7280" opacity="0.8"/>
  <ellipse cx="50" cy="65" rx="11" ry="4" fill="#9CA3AF"/>
  
  <!-- Sole -->
  <rect x="38" y="68" width="24" height="4" rx="2" fill="#0F172A"/>
  <line x1="40" y1="70" x2="60" y2="70" stroke="#FFF" stroke-width="0.5" opacity="0.3"/>
  
  <!-- Laces -->
  <path d="M45 42 L50 45 L55 42" stroke="#F76511" stroke-width="1.5" fill="none"/>
  <path d="M45 48 L50 51 L55 48" stroke="#F76511" stroke-width="1.5" fill="none"/>
  <path d="M45 54 L50 57 L55 54" stroke="#F76511" stroke-width="1.5" fill="none"/>
  
  <!-- Warning stripe -->
  <rect x="38" y="44" width="3" height="18" fill="#F76511" opacity="0.8"/>
  
  <!-- ANSI indicator badge -->
  <circle cx="52" cy="50" r="6" fill="#FFF" opacity="0.9"/>
  <text x="52" y="53" font-size="6" font-weight="bold" text-anchor="middle" fill="#F76511">ANSI</text>
</svg>

