<svg width="96" height="96" viewBox="0 0 96 96" fill="none" xmlns="http://www.w3.org/2000/svg">
  <!-- Battery secured icon -->
  <rect width="96" height="96" fill="transparent"/>
  
  <!-- Battery body -->
  <rect x="25" y="35" width="46" height="40" rx="3" fill="#0F172A" opacity="0.8"/>
  
  <!-- Battery terminals -->
  <rect x="38" y="28" width="8" height="10" rx="1" fill="#DC2626"/>
  <text x="42" y="35" font-size="8" font-weight="bold" text-anchor="middle" fill="#FFF">+</text>
  
  <rect x="50" y="28" width="8" height="10" rx="1" fill="#0F172A"/>
  <text x="54" y="35" font-size="8" font-weight="bold" text-anchor="middle" fill="#FFF">−</text>
  
  <!-- Securing strap/bracket -->
  <rect x="20" y="48" width="56" height="8" rx="2" fill="#F76511" opacity="0.8"/>
  <circle cx="28" cy="52" r="3" fill="#6B7280"/>
  <circle cx="68" cy="52" r="3" fill="#6B7280"/>
  
  <!-- Lock/secure indicator -->
  <circle cx="48" cy="52" r="6" fill="#10B981"/>
  <rect x="46" y="55" width="4" height="6" rx="1" fill="#10B981"/>
  <path d="M45 55 L45 52 Q45 50 48 50 Q51 50 51 52 L51 55" stroke="#FFF" stroke-width="1.5" fill="none"/>
  
  <!-- Warning label -->
  <rect x="30" y="42" width="36" height="4" rx="1" fill="#FDE68A"/>
  
  <!-- Level indicator -->
  <rect x="32" y="62" width="32" height="8" rx="1" fill="#6B7280" opacity="0.3"/>
  <rect x="34" y="64" width="20" height="4" rx="1" fill="#10B981"/>
</svg>

