<svg width="96" height="96" viewBox="0 0 96 96" fill="none" xmlns="http://www.w3.org/2000/svg">
  <!-- No elevated travel -->
  <rect width="96" height="96" fill="transparent"/>
  
  <!-- Forklift (side view) -->
  <rect x="20" y="55" width="35" height="20" rx="2" fill="#F76511" opacity="0.7"/>
  <rect x="15" y="60" width="8" height="15" fill="#0F172A" opacity="0.6"/>
  <circle cx="27" cy="77" r="5" fill="#0F172A"/>
  <circle cx="48" cy="77" r="5" fill="#0F172A"/>
  
  <!-- Mast -->
  <rect x="18" y="20" width="5" height="38" fill="#6B7280" opacity="0.8"/>
  
  <!-- Load elevated (WRONG - shown with X) -->
  <rect x="15" y="15" width="16" height="12" rx="1" 
        fill="#DC2626" opacity="0.3" stroke="#DC2626" stroke-width="2"/>
  
  <!-- Big red X (prohibited) -->
  <circle cx="48" cy="35" r="22" fill="none" stroke="#DC2626" stroke-width="4"/>
  <line x1="32" y1="20" x2="64" y2="50" stroke="#DC2626" stroke-width="4" stroke-linecap="round"/>
  
  <!-- Correct position (forks low) -->
  <g transform="translate(55, 0)" opacity="0.6">
    <!-- Small forklift -->
    <rect x="10" y="55" width="25" height="15" rx="1" fill="#10B981" opacity="0.5"/>
    <rect x="8" y="45" width="4" height="15" fill="#6B7280" opacity="0.5"/>
    <circle cx="17" cy="72" r="3" fill="#0F172A" opacity="0.6"/>
    <circle cx="30" cy="72" r="3" fill="#0F172A" opacity="0.6"/>
    <!-- Load LOW -->
    <rect x="6" y="48" width="12" height="8" rx="1" fill="#10B981" opacity="0.7"/>
  </g>
  
  <!-- Green checkmark on correct -->
  <circle cx="73" cy="62" r="9" fill="#10B981"/>
  <path d="M69 62 L72 65 L77 60" stroke="#FFF" stroke-width="2" stroke-linecap="round" fill="none"/>
</svg>

