<svg width="96" height="96" viewBox="0 0 96 96" fill="none" xmlns="http://www.w3.org/2000/svg">
  <!-- Aisle congestion -->
  <rect width="96" height="96" fill="transparent"/>
  
  <!-- Narrow aisle walls -->
  <rect x="10" y="20" width="8" height="60" fill="#9CA3AF" opacity="0.5"/>
  <rect x="78" y="20" width="8" height="60" fill="#9CA3AF" opacity="0.5"/>
  
  <!-- Obstacles in aisle -->
  <rect x="25" y="30" width="12" height="16" rx="2" fill="#6B7280" opacity="0.6"/>
  <rect x="60" y="50" width="14" height="14" rx="2" fill="#6B7280" opacity="0.6"/>
  
  <!-- Pallet -->
  <rect x="45" y="25" width="16" height="12" rx="1" fill="#F76511" opacity="0.4"/>
  <line x1="48" y1="25" x2="48" y2="37" stroke="#F76511" stroke-width="1"/>
  <line x1="58" y1="25" x2="58" y2="37" stroke="#F76511" stroke-width="1"/>
  
  <!-- Pedestrian -->
  <circle cx="52" cy="55" r="5" fill="#10B981" opacity="0.7"/>
  <rect x="47" y="59" width="10" height="12" rx="2" fill="#10B981" opacity="0.7"/>
  
  <!-- Forklift trying to squeeze through -->
  <rect x="28" y="68" width="22" height="14" rx="1" fill="#DC2626" opacity="0.5"/>
  <circle cx="34" cy="84" r="3" fill="#0F172A" opacity="0.6"/>
  <circle cx="44" cy="84" r="3" fill="#0F172A" opacity="0.6"/>
  
  <!-- Warning X -->
  <circle cx="70" cy="72" r="11" fill="#DC2626"/>
  <line x1="64" y1="66" x2="76" y2="78" stroke="#FFF" stroke-width="2.5" stroke-linecap="round"/>
  <line x1="76" y1="66" x2="64" y2="78" stroke="#FFF" stroke-width="2.5" stroke-linecap="round"/>
  
  <!-- Wait/spotter sign -->
  <rect x="65" y="22" width="24" height="12" rx="2" fill="#F76511"/>
  <text x="77" y="30" font-size="8" font-weight="bold" text-anchor="middle" fill="#FFF">WAIT</text>
</svg>

