<svg width="96" height="96" viewBox="0 0 96 96" fill="none" xmlns="http://www.w3.org/2000/svg">
  <!-- Overhead obstruction -->
  <rect width="96" height="96" fill="transparent"/>
  
  <!-- Overhead beam/pipe -->
  <rect x="15" y="22" width="66" height="10" rx="2" fill="#6B7280" opacity="0.8"/>
  <rect x="15" y="25" width="66" height="4" fill="#9CA3AF"/>
  
  <!-- Warning stripes on obstruction -->
  <rect x="20" y="22" width="6" height="10" fill="#FDE68A"/>
  <rect x="32" y="22" width="6" height="10" fill="#FDE68A"/>
  <rect x="58" y="22" width="6" height="10" fill="#FDE68A"/>
  <rect x="70" y="22" width="6" height="10" fill="#FDE68A"/>
  
  <!-- Forklift mast (too high - WRONG) -->
  <rect x="35" y="35" width="6" height="35" fill="#DC2626" opacity="0.5"/>
  <rect x="38" y="30" width="12" height="8" fill="#DC2626" opacity="0.4"/>
  
  <!-- Collision indicator -->
  <path d="M40 28 L44 22 L48 28" fill="#DC2626"/>
  <path d="M42 26 L44 30 L46 26" fill="#FFF"/>
  
  <!-- Forklift body -->
  <rect x="25" y="60" width="30" height="18" rx="2" fill="#F76511" opacity="0.6"/>
  <circle cx="32" cy="80" r="4" fill="#0F172A"/>
  <circle cx="48" cy="80" r="4" fill="#0F172A"/>
  
  <!-- Clearance measurement -->
  <line x1="70" y1="32" x2="70" y2="60" stroke="#10B981" stroke-width="2" stroke-dasharray="3,2"/>
  <circle cx="70" cy="46" r="8" fill="#10B981"/>
  <path d="M68 42 L72 50 M68 50 L72 42" stroke="#FFF" stroke-width="2" stroke-linecap="round"/>
  
  <!-- Down arrow (lower mast) -->
  <path d="M75 50 L75 70" stroke="#10B981" stroke-width="3" stroke-linecap="round"/>
  <path d="M70 65 L75 70 L80 65" stroke="#10B981" stroke-width="3" stroke-linecap="round" fill="none"/>
</svg>

