<svg width="96" height="96" viewBox="0 0 96 96" fill="none" xmlns="http://www.w3.org/2000/svg">
  <!-- Connecting charger -->
  <rect width="96" height="96" fill="transparent"/>
  
  <!-- Charger unit -->
  <rect x="55" y="20" width="30" height="45" rx="3" fill="#0F172A" opacity="0.7"/>
  <rect x="58" y="23" width="24" height="30" rx="2" fill="#6B7280" opacity="0.6"/>
  
  <!-- Display/indicator lights -->
  <circle cx="70" cy="32" r="3" fill="#10B981"/>
  <circle cx="70" cy="42" r="2" fill="#FDE68A"/>
  
  <!-- Cable -->
  <path d="M70 65 L70 72 Q68 75 65 75 L35 75" 
        stroke="#F76511" stroke-width="4" fill="none"/>
  
  <!-- Plug/connector -->
  <rect x="28" y="70" width="10" height="10" rx="2" fill="#6B7280"/>
  <rect x="30" y="72" width="6" height="6" rx="1" fill="#9CA3AF"/>
  <circle cx="32" cy="74" r="1" fill="#F76511"/>
  <circle cx="36" cy="74" r="1" fill="#0F172A"/>
  
  <!-- Battery (forklift) -->
  <rect x="10" y="55" width="35" height="25" rx="2" fill="#0F172A" opacity="0.6" stroke="#F76511" stroke-width="2"/>
  <rect x="20" y="50" width="6" height="8" rx="1" fill="#DC2626"/>
  <text x="23" y="56" font-size="6" font-weight="bold" text-anchor="middle" fill="#FFF">+</text>
  <rect x="29" y="50" width="6" height="8" rx="1" fill="#0F172A"/>
  <text x="32" y="56" font-size="6" font-weight="bold" text-anchor="middle" fill="#FFF">−</text>
  
  <!-- Connection arrow -->
  <path d="M40 75 L48 75" stroke="#10B981" stroke-width="2.5" stroke-linecap="round"/>
  <path d="M44 72 L48 75 L44 78" stroke="#10B981" stroke-width="2.5" stroke-linecap="round" fill="none"/>
  
  <!-- Sequence numbers -->
  <circle cx="15" cy="25" r="10" fill="#F76511"/>
  <text x="15" y="30" font-size="10" font-weight="bold" text-anchor="middle" fill="#FFF">1</text>
  <text x="15" y="40" font-size="6" text-anchor="middle" fill="#0F172A" opacity="0.6">PARK</text>
</svg>

