<svg width="96" height="96" viewBox="0 0 96 96" fill="none" xmlns="http://www.w3.org/2000/svg">
  <!-- Parking procedure -->
  <rect width="96" height="96" fill="transparent"/>
  
  <!-- Ground -->
  <line x1="10" y1="75" x2="86" y2="75" stroke="#9CA3AF" stroke-width="2"/>
  <rect x="10" y="75" width="76" height="5" fill="#D1D5DB" opacity="0.3"/>
  
  <!-- Parked forklift -->
  <rect x="30" y="52" width="35" height="20" rx="2" fill="#F76511" opacity="0.7"/>
  <rect x="27" y="54" width="6" height="16" fill="#0F172A" opacity="0.6"/>
  <circle cx="37" cy="74" r="5" fill="#0F172A"/>
  <circle cx="58" cy="74" r="5" fill="#0F172A"/>
  
  <!-- Forks DOWN -->
  <rect x="24" y="68" width="5" height="7" rx="1" fill="#10B981" opacity="0.8"/>
  <rect x="18" y="68" width="5" height="7" rx="1" fill="#10B981" opacity="0.8"/>
  
  <!-- Parking brake engaged -->
  <rect x="42" y="45" width="8" height="14" rx="2" fill="#DC2626"/>
  <text x="46" y="54" font-size="8" font-weight="bold" text-anchor="middle" fill="#FFF">P</text>
  
  <!-- Key removed -->
  <g transform="translate(68, 48)">
    <rect x="0" y="0" width="4" height="12" rx="1" fill="#6B7280"/>
    <path d="M2 0 L2 -6 L6 -6 L6 -3 L4 -3 L4 -4 L3 -4 L3 -5 L5 -5 L5 -7 L2 -7 Z" fill="#6B7280"/>
    <circle cx="10" cy="6" r="8" fill="#10B981" opacity="0.3" stroke="#10B981" stroke-width="2"/>
    <line x1="8" y1="4" x2="12" y2="8" stroke="#10B981" stroke-width="2" stroke-linecap="round"/>
  </g>
  
  <!-- Checklist -->
  <rect x="10" y="20" width="30" height="28" rx="2" fill="#FFF" opacity="0.9" stroke="#F76511" stroke-width="1.5"/>
  <circle cx="16" cy="28" r="3" fill="#10B981"/>
  <line x1="22" y1="28" x2="34" y2="28" stroke="#0F172A" stroke-width="1" opacity="0.4"/>
  <circle cx="16" cy="36" r="3" fill="#10B981"/>
  <line x1="22" y1="36" x2="34" y2="36" stroke="#0F172A" stroke-width="1" opacity="0.4"/>
  <circle cx="16" cy="44" r="3" fill="#10B981"/>
  <line x1="22" y1="44" x2="34" y2="44" stroke="#0F172A" stroke-width="1" opacity="0.4"/>
</svg>

