<svg xmlns="http://www.w3.org/2000/svg" width="1200" height="800" viewBox="0 0 1200 800">
  <defs>
    <style>
      .stroke { stroke:#0F172A; stroke-width:1.8; stroke-linecap:round; stroke-linejoin:round; }
    </style>
  </defs>
  <rect x="0" y="0" width="1200" height="800" fill="#FFFFFF"/>
  <ellipse cx="640" cy="650" rx="480" ry="80" fill="#0F172A" fill-opacity="0.05"/>
  <g id="forklift-body">
    <path d="M260 560 L520 500 L820 520 L560 580 Z" class="stroke" fill="#E5E7EB"/>
    <path d="M222 520 L380 482 L380 610 L240 650 Q228 650 222 640 Z" class="stroke" fill="#CBD5E1"/>
    <path d="M380 520 L560 480 L700 500 L520 540 Z" class="stroke" fill="#E5E7EB"/>
    <path d="M560 480 L680 455 L740 470 L620 495 Z" class="stroke" fill="#E5E7EB"/>
    <path d="M410 475 L520 450 L560 480 L450 505 Z" class="stroke" fill="#CBD5E1"/>
    <path d="M460 420 L520 405 L550 440 L490 455 Z" class="stroke" fill="#CBD5E1"/>
    <path d="M400 380 L400 250" class="stroke" fill="none"/>
    <path d="M600 360 L600 235" class="stroke" fill="none"/>
    <path d="M400 250 L600 235 L760 255" class="stroke" fill="none"/>
    <ellipse cx="300" cy="635" rx="48" ry="30" class="stroke" fill="#94A3B8"/>
    <ellipse cx="300" cy="635" rx="22" ry="14" class="stroke" fill="#E5E7EB"/>
    <ellipse cx="860" cy="620" rx="64" ry="40" class="stroke" fill="#94A3B8"/>
    <ellipse cx="860" cy="620" rx="28" ry="18" class="stroke" fill="#E5E7EB"/>
    <path d="M420 470 L455 460 L470 470 L435 480 Z" class="stroke" fill="#E5E7EB"/>
    <path d="M455 468 L455 435" class="stroke" fill="none"/>
    <path d="M505 462 L505 430" class="stroke" fill="none"/>
  </g>
  <g id="control-steering-wheel">
    <circle cx="390" cy="425" r="82" class="stroke" fill="#F76511" fill-opacity="0.06"/>
    <circle cx="390" cy="425" r="68" class="stroke" fill="#E5E7EB"/>
    <circle cx="390" cy="425" r="16" class="stroke" fill="#CBD5E1"/>
    <path d="M390 425 L390 365" class="stroke" fill="none"/>
    <path d="M390 425 L430 455" class="stroke" fill="none"/>
    <path d="M390 425 L350 455" class="stroke" fill="none"/>
    <path d="M390 441 L415 470" class="stroke" fill="none"/>
  </g>
  <g id="control-lift-lever">
    <ellipse cx="610" cy="420" rx="54" ry="46" class="stroke" fill="#F76511" fill-opacity="0.06"/>
    <path d="M600 455 L608 400" class="stroke" fill="none"/>
    <circle cx="612" cy="392" r="10" class="stroke" fill="#CBD5E1"/>
    <rect x="588" y="456" width="44" height="10" rx="3" class="stroke" fill="#E5E7EB"/>
    <rect x="592" y="458" width="36" height="6" rx="2" class="stroke" fill="#CBD5E1"/>
  </g>
  <g id="control-tilt-lever">
    <ellipse cx="650" cy="440" rx="50" ry="42" class="stroke" fill="#F76511" fill-opacity="0.06"/>
    <path d="M642 470 L652 418" class="stroke" fill="none"/>
    <circle cx="654" cy="410" r="9" class="stroke" fill="#CBD5E1"/>
    <rect x="630" y="472" width="40" height="9" rx="3" class="stroke" fill="#E5E7EB"/>
  </g>
  <g id="control-horn-button">
    <circle cx="450" cy="405" r="30" class="stroke" fill="#F76511" fill-opacity="0.06"/>
    <circle cx="450" cy="405" r="14" class="stroke" fill="#94A3B8"/>
    <circle cx="450" cy="405" r="8" class="stroke" fill="#CBD5E1"/>
  </g>
  <g id="control-parking-brake">
    <ellipse cx="440" cy="520" rx="58" ry="46" class="stroke" fill="#F76511" fill-opacity="0.06"/>
    <path d="M430 545 L444 500" class="stroke" fill="none"/>
    <circle cx="446" cy="492" r="10" class="stroke" fill="#F76511"/>
    <rect x="418" y="548" width="36" height="10" rx="3" class="stroke" fill="#CBD5E1"/>
    <path d="M420 548 L452 548" class="stroke" fill="none"/>
  </g>
  <g id="control-ignition-key">
    <circle cx="520" cy="400" r="32" class="stroke" fill="#F76511" fill-opacity="0.06"/>
    <circle cx="520" cy="400" r="14" class="stroke" fill="#E5E7EB"/>
    <path d="M520 400 L545 392 L552 398 L540 402 L545 408 L538 412 Z" class="stroke" fill="#CBD5E1"/>
  </g>
  <g id="control-seatbelt-latch">
    <ellipse cx="485" cy="475" rx="44" ry="36" class="stroke" fill="#F76511" fill-opacity="0.06"/>
    <rect x="470" y="462" width="28" height="18" rx="3" class="stroke" fill="#CBD5E1"/>
    <rect x="474" y="466" width="8" height="10" class="stroke" fill="#E5E7EB"/>
    <rect x="498" y="468" width="10" height="6" class="stroke" fill="#94A3B8"/>
    <path d="M470 471 L448 458" class="stroke" fill="none"/>
    <path d="M498 477 L520 490" class="stroke" fill="none"/>
  </g>
  <g id="control-mast">
    <ellipse cx="980" cy="420" rx="84" ry="120" class="stroke" fill="#F76511" fill-opacity="0.06"/>
    <path d="M940 250 L970 245 L970 640 L940 645 Z" class="stroke" fill="#E5E7EB"/>
    <path d="M1015 260 L1045 255 L1045 645 L1015 650 Z" class="stroke" fill="#E5E7EB"/>
    <path d="M965 310 L990 305 L990 600 L965 605 Z" class="stroke" fill="#CBD5E1"/>
    <rect x="960" y="360" width="90" height="12" class="stroke" fill="#CBD5E1"/>
  </g>
  <g id="control-forks">
    <ellipse cx="1065" cy="610" rx="110" ry="52" class="stroke" fill="#F76511" fill-opacity="0.06"/>
    <rect x="952" y="590" width="150" height="16" class="stroke" fill="#CBD5E1"/>
    <path d="M980 598 L980 628 L1080 628 L1080 616 L1000 616 L1000 598 Z" class="stroke" fill="#E5E7EB"/>
    <path d="M1020 598 L1020 638 L1120 638 L1120 626 L1040 626 L1040 598 Z" class="stroke" fill="#E5E7EB"/>
    <path d="M1080 628 L1120 638" class="stroke" fill="none" stroke="#F76511"/>
  </g>
</svg>
