<svg xmlns="http://www.w3.org/2000/svg" width="1200" height="800" viewBox="0 0 1200 800">
  <defs>
    <style>
      .st { stroke:#0F172A; stroke-width:1.8; stroke-linecap:round; stroke-linejoin:round; }
    </style>

    <!-- Hi-Vis Vest -->
    <symbol id="icon-ppe-vest" viewBox="0 0 128 128">
      <rect x="22" y="20" width="84" height="92" rx="10" fill="#E5E7EB" class="st"/>
      <rect x="60" y="20" width="8" height="92" fill="#FFFFFF" class="st"/>
      <polygon points="60,20 68,20 64,30" fill="#FFFFFF" class="st"/>
      <path d="M22 44 Q32 40 22 36" fill="none" class="st"/>
      <path d="M106 44 Q96 40 106 36" fill="none" class="st"/>
      <rect x="28" y="64" width="30" height="8" rx="3" fill="#F76511" stroke="#F76511" class="st"/>
      <rect x="70" y="64" width="30" height="8" rx="3" fill="#F76511" stroke="#F76511" class="st"/>
      <rect x="28" y="84" width="30" height="8" rx="3" fill="#CBD5E1" stroke="#94A3B8" class="st"/>
      <rect x="70" y="84" width="30" height="8" rx="3" fill="#CBD5E1" stroke="#94A3B8" class="st"/>
    </symbol>

    <!-- Hard Hat -->
    <symbol id="icon-ppe-hardhat" viewBox="0 0 128 128">
      <path d="M28 76 a36 36 0 0 1 72 0 v10 H28 Z" fill="#E5E7EB" class="st"/>
      <rect x="20" y="86" width="88" height="10" rx="3" fill="#CBD5E1" class="st"/>
      <path d="M64 50 v18" fill="none" class="st"/>
      <path d="M48 56 v14" fill="none" class="st"/>
      <path d="M80 56 v14" fill="none" class="st"/>
      <rect x="36" y="80" width="56" height="4" fill="#F76511" stroke="#F76511" class="st"/>
    </symbol>

    <!-- Safety Boots -->
    <symbol id="icon-ppe-boots" viewBox="0 0 128 128">
      <path d="M22 72 H54 V46 H72 V88 H22 Z" fill="#E5E7EB" class="st"/>
      <rect x="18" y="88" width="60" height="10" rx="3" fill="#0F172A" stroke="#0F172A" class="st"/>
      <rect x="50" y="52" width="6" height="6" rx="1.5" fill="#CBD5E1" class="st"/>
      <path d="M74 72 H106 V58 H90 V46 H74 Z" fill="#E5E7EB" class="st"/>
      <rect x="70" y="88" width="60" height="10" rx="3" fill="#0F172A" stroke="#0F172A" class="st"/>
      <rect x="92" y="52" width="6" height="6" rx="1.5" fill="#CBD5E1" class="st"/>
      <path d="M18 88 Q28 84 38 88" fill="none" class="st"/>
      <path d="M70 88 Q80 84 90 88" fill="none" class="st"/>
      <line x1="22" y1="72" x2="54" y2="72" stroke="#F76511" class="st"/>
    </symbol>

    <!-- Safety Goggles -->
    <symbol id="icon-ppe-goggles" viewBox="0 0 128 128">
      <rect x="16" y="58" width="96" height="16" rx="8" fill="#CBD5E1" class="st"/>
      <rect x="24" y="48" width="80" height="36" rx="10" fill="#E5E7EB" class="st"/>
      <rect x="30" y="54" width="30" height="24" rx="6" fill="#FFFFFF" class="st"/>
      <rect x="68" y="54" width="30" height="24" rx="6" fill="#FFFFFF" class="st"/>
      <rect x="60" y="60" width="8" height="12" rx="3" fill="#94A3B8" class="st"/>
      <rect x="28" y="46" width="12" height="4" rx="2" fill="#F76511" stroke="#F76511" class="st"/>
      <rect x="88" y="46" width="12" height="4" rx="2" fill="#F76511" stroke="#F76511" class="st"/>
    </symbol>

    <!-- Hearing Protection (Earmuffs) -->
    <symbol id="icon-ppe-earmuffs" viewBox="0 0 128 128">
      <path d="M28 50 C44 34, 84 34, 100 50" fill="none" class="st"/>
      <rect x="22" y="58" width="22" height="30" rx="6" fill="#E5E7EB" class="st"/>
      <rect x="84" y="58" width="22" height="30" rx="6" fill="#E5E7EB" class="st"/>
      <rect x="26" y="62" width="14" height="22" rx="5" fill="#CBD5E1" class="st"/>
      <rect x="88" y="62" width="14" height="22" rx="5" fill="#CBD5E1" class="st"/>
      <rect x="22" y="90" width="22" height="4" rx="2" fill="#F76511" stroke="#F76511" class="st"/>
      <rect x="84" y="90" width="22" height="4" rx="2" fill="#F76511" stroke="#F76511" class="st"/>
    </symbol>

    <!-- Seatbelt -->
    <symbol id="icon-ppe-seatbelt" viewBox="0 0 128 128">
      <rect x="24" y="72" width="80" height="10" rx="5" transform="rotate(-30 64 77)" fill="#E5E7EB" class="st"/>
      <rect x="30" y="86" width="68" height="10" rx="5" fill="#CBD5E1" class="st"/>
      <rect x="58" y="80" width="18" height="18" rx="3" fill="#FFFFFF" class="st"/>
      <rect x="61" y="83" width="12" height="12" rx="2" fill="#F76511" stroke="#F76511" class="st"/>
      <rect x="76" y="88" width="14" height="6" rx="2" fill="#94A3B8" class="st"/>
    </symbol>
  </defs>

  <!-- Optional preview (safe to leave) -->
  <g id="preview">
    <use href="#icon-ppe-vest" x="140" y="140" width="160" height="160"/>
    <use href="#icon-ppe-hardhat" x="420" y="140" width="160" height="160"/>
    <use href="#icon-ppe-boots" x="700" y="140" width="160" height="160"/>
    <use href="#icon-ppe-goggles" x="140" y="420" width="160" height="160"/>
    <use href="#icon-ppe-earmuffs" x="420" y="420" width="160" height="160"/>
    <use href="#icon-ppe-seatbelt" x="700" y="420" width="160" height="160"/>
  </g>
</svg>
