<svg xmlns="http://www.w3.org/2000/svg" width="1200" height="800" viewBox="0 0 1200 800">
  <defs>
    <style>
      .st { stroke:#0F172A; stroke-width:1.8; stroke-linecap:round; stroke-linejoin:round; }
    </style>

    <!-- Tires -->
    <symbol id="inspect-tires" viewBox="0 0 128 128">
      <circle cx="64" cy="70" r="28" fill="#E5E7EB" class="st"/>
      <circle cx="64" cy="70" r="16" fill="#CBD5E1" class="st"/>
      <path d="M64 42 V50 M64 90 v8 M42 70 h-8 M94 70 h8 M49 55 l-6 -6 M79 85 l6 6 M79 55 l6 -6 M49 85 l-6 6" fill="none" class="st"/>
      <circle cx="64" cy="70" r="34" fill="none" stroke="#F76511" class="st"/>
    </symbol>

    <!-- Forks -->
    <symbol id="inspect-forks" viewBox="0 0 128 128">
      <rect x="24" y="42" width="56" height="28" rx="4" fill="#CBD5E1" class="st"/>
      <rect x="28" y="70" width="48" height="6" rx="2" fill="#0F172A" stroke="#0F172A" class="st"/>
      <rect x="40" y="76" width="52" height="6" rx="2" fill="#0F172A" stroke="#0F172A" class="st"/>
      <line x1="20" y1="88" x2="108" y2="88" stroke="#94A3B8" class="st"/>
      <circle cx="80" cy="79" r="6" fill="none" stroke="#F76511" class="st"/>
      <circle cx="68" cy="73" r="6" fill="none" stroke="#F76511" class="st"/>
    </symbol>

    <!-- Chains -->
    <symbol id="inspect-chains" viewBox="0 0 128 128">
      <rect x="26" y="50" width="36" height="28" rx="12" fill="#E5E7EB" class="st"/>
      <rect x="34" y="56" width="20" height="16" rx="8" fill="#FFFFFF" class="st"/>
      <rect x="66" y="50" width="36" height="28" rx="12" fill="#E5E7EB" class="st"/>
      <rect x="74" y="56" width="20" height="16" rx="8" fill="#FFFFFF" class="st"/>
      <path d="M62 50 l8 -8 M62 78 l8 8" fill="none" class="st"/>
      <rect x="58" y="60" width="12" height="8" rx="4" fill="#F76511" stroke="#F76511" class="st"/>
    </symbol>

    <!-- Horn -->
    <symbol id="inspect-horn" viewBox="0 0 128 128">
      <path d="M24 64 H48 L72 50 L104 46 V82 L72 78 L48 64 Z" fill="#E5E7EB" class="st"/>
      <rect x="20" y="58" width="6" height="12" rx="2" fill="#CBD5E1" class="st"/>
      <path d="M104 56 q10 8 0 16" fill="none" stroke="#F76511" class="st"/>
      <path d="M110 52 q16 12 0 24" fill="none" stroke="#F76511" class="st"/>
    </symbol>

    <!-- Lights -->
    <symbol id="inspect-lights" viewBox="0 0 128 128">
      <rect x="32" y="48" width="28" height="24" rx="6" fill="#E5E7EB" class="st"/>
      <rect x="42" y="72" width="8" height="12" rx="2" fill="#CBD5E1" class="st"/>
      <rect x="38" y="84" width="16" height="6" rx="3" fill="#CBD5E1" class="st"/>
      <path d="M64 52 H100" fill="none" stroke="#F76511" class="st"/>
      <path d="M64 60 H96" fill="none" stroke="#F76511" class="st"/>
      <path d="M64 44 H92" fill="none" stroke="#F76511" class="st"/>
      <path d="M84 46 a18 18 0 0 1 16 18" fill="none" stroke="#94A3B8" class="st"/>
    </symbol>

    <!-- Hydraulics -->
    <symbol id="inspect-hydraulics" viewBox="0 0 128 128">
      <rect x="28" y="58" width="48" height="14" rx="7" fill="#CBD5E1" class="st"/>
      <rect x="76" y="62" width="28" height="6" rx="3" fill="#E5E7EB" class="st"/>
      <path d="M28 65 c-10 -6 -16 10 -8 14 c6 3 12 -5 18 -5" fill="none" class="st"/>
      <rect x="72" y="58" width="4" height="14" rx="2" fill="#F76511" stroke="#F76511" class="st"/>
    </symbol>

    <!-- Leaks -->
    <symbol id="inspect-leaks" viewBox="0 0 128 128">
      <path d="M24 96 C40 90, 64 92, 84 96 C100 100, 98 112, 78 116 C58 120, 36 116, 24 106 Z" fill="#E5E7EB" class="st"/>
      <rect x="88" y="40" width="8" height="28" rx="3" fill="#CBD5E1" class="st"/>
      <path d="M92 70 c0 -6 8 -6 8 2 c0 6 -8 6 -8 -2 Z" fill="#F76511" stroke="#F76511" class="st"/>
      <path d="M82 76 c0 -6 8 -6 8 2 c0 6 -8 6 -8 -2 Z" fill="#F76511" stroke="#F76511" class="st"/>
      <ellipse cx="64" cy="106" rx="44" ry="16" fill="none" stroke="#F76511" class="st"/>
    </symbol>

    <!-- Data Plate -->
    <symbol id="inspect-data-plate" viewBox="0 0 128 128">
      <rect x="28" y="40" width="72" height="48" rx="6" fill="#E5E7EB" class="st"/>
      <circle cx="34" cy="46" r="2.5" fill="#CBD5E1" class="st"/>
      <circle cx="94" cy="46" r="2.5" fill="#CBD5E1" class="st"/>
      <circle cx="34" cy="82" r="2.5" fill="#CBD5E1" class="st"/>
      <circle cx="94" cy="82" r="2.5" fill="#CBD5E1" class="st"/>
      <rect x="36" y="56" width="6" height="20" fill="#0F172A" stroke="#0F172A" class="st"/>
      <rect x="44" y="56" width="3" height="20" fill="#0F172A" stroke="#0F172A" class="st"/>
      <rect x="50" y="56" width="5" height="20" fill="#0F172A" stroke="#0F172A" class="st"/>
      <rect x="58" y="56" width="2" height="20" fill="#0F172A" stroke="#0F172A" class="st"/>
      <rect x="62" y="56" width="4" height="20" fill="#0F172A" stroke="#0F172A" class="st"/>
      <rect x="84" y="40" width="16" height="10" rx="3" fill="#F76511" stroke="#F76511" class="st"/>
    </symbol>
  </defs>
</svg>
