<svg width="64" height="64" viewBox="0 0 64 64" fill="none" xmlns="http://www.w3.org/2000/svg">
  <!-- Left boot sole -->
  <ellipse cx="20" cy="50" rx="12" ry="8" fill="#1a1a1a"/>
  <ellipse cx="20" cy="48" rx="10" ry="6" fill="#333333"/>
  
  <!-- Left boot upper -->
  <path d="M12 40 C12 38, 14 36, 16 36 L24 36 C26 36, 28 38, 28 40 L28 48 C28 50, 26 52, 24 52 L16 52 C14 52, 12 50, 12 48 Z" fill="#8B4513" stroke="#654321" stroke-width="1"/>
  
  <!-- Left boot steel toe -->
  <ellipse cx="20" cy="46" rx="8" ry="4" fill="#A0522D"/>
  <ellipse cx="20" cy="44" rx="6" ry="3" fill="#CD853F"/>
  
  <!-- Left boot laces -->
  <rect x="18" y="38" width="4" height="2" fill="#1a1a1a" rx="1"/>
  <rect x="18" y="41" width="4" height="2" fill="#1a1a1a" rx="1"/>
  <circle cx="17" cy="39" r="0.5" fill="#666666"/>
  <circle cx="23" cy="39" r="0.5" fill="#666666"/>
  <circle cx="17" cy="42" r="0.5" fill="#666666"/>
  <circle cx="23" cy="42" r="0.5" fill="#666666"/>
  
  <!-- Right boot sole -->
  <ellipse cx="44" cy="50" rx="12" ry="8" fill="#1a1a1a"/>
  <ellipse cx="44" cy="48" rx="10" ry="6" fill="#333333"/>
  
  <!-- Right boot upper -->
  <path d="M36 40 C36 38, 38 36, 40 36 L48 36 C50 36, 52 38, 52 40 L52 48 C52 50, 50 52, 48 52 L40 52 C38 52, 36 50, 36 48 Z" fill="#8B4513" stroke="#654321" stroke-width="1"/>
  
  <!-- Right boot steel toe -->
  <ellipse cx="44" cy="46" rx="8" ry="4" fill="#A0522D"/>
  <ellipse cx="44" cy="44" rx="6" ry="3" fill="#CD853F"/>
  
  <!-- Right boot laces -->
  <rect x="42" y="38" width="4" height="2" fill="#1a1a1a" rx="1"/>
  <rect x="42" y="41" width="4" height="2" fill="#1a1a1a" rx="1"/>
  <circle cx="41" cy="39" r="0.5" fill="#666666"/>
  <circle cx="47" cy="39" r="0.5" fill="#666666"/>
  <circle cx="41" cy="42" r="0.5" fill="#666666"/>
  <circle cx="47" cy="42" r="0.5" fill="#666666"/>
  
  <!-- Boot treads -->
  <rect x="14" y="51" width="12" height="1" fill="#000000" opacity="0.5"/>
  <rect x="38" y="51" width="12" height="1" fill="#000000" opacity="0.5"/>
  
  <!-- Safety certification labels -->
  <rect x="16" y="37" width="8" height="3" fill="#ffffff" opacity="0.8" rx="0.5"/>
  <text x="20" y="39" text-anchor="middle" font-family="Arial" font-size="4" fill="#000000" font-weight="bold">STEEL</text>
  <rect x="40" y="37" width="8" height="3" fill="#ffffff" opacity="0.8" rx="0.5"/>
  <text x="44" y="39" text-anchor="middle" font-family="Arial" font-size="4" fill="#000000" font-weight="bold">STEEL</text>
  
  <!-- Boot stitching details -->
  <path d="M14 44 Q20 42 26 44" stroke="#654321" stroke-width="0.5" fill="none" stroke-dasharray="1,1"/>
  <path d="M38 44 Q44 42 50 44" stroke="#654321" stroke-width="0.5" fill="none" stroke-dasharray="1,1"/>
</svg> 