<svg xmlns="http://www.w3.org/2000/svg" width="1200" height="800" viewBox="0 0 1200 800">
  <defs>
    <style>
      .st { stroke:#0F172A; stroke-width:1.8; stroke-linecap:round; stroke-linejoin:round; }
    </style>
  </defs>

  <!-- Scene container / background -->
  <g id="scene">
    <rect x="0" y="0" width="1200" height="800" fill="#FFFFFF"/>
    <!-- Subtle floor shadow -->
    <ellipse cx="600" cy="700" rx="520" ry="60" fill="#0F172A" fill-opacity="0.04"/>
  </g>

  <!-- Racks (left/right bays) -->
  <g id="racks">
    <!-- Left rack frame -->
    <g>
      <!-- Uprights -->
      <rect x="90" y="180" width="18" height="420" fill="#CBD5E1" class="st"/>
      <rect x="300" y="180" width="18" height="420" fill="#CBD5E1" class="st"/>
      <!-- Beams -->
      <rect x="108" y="220" width="192" height="14" fill="#E5E7EB" class="st"/>
      <rect x="108" y="350" width="192" height="14" fill="#E5E7EB" class="st"/>
      <rect x="108" y="480" width="192" height="14" fill="#E5E7EB" class="st"/>
      <!-- Diagonals -->
      <path d="M108 230 L300 344" fill="none" class="st"/>
      <path d="M108 360 L300 474" fill="none" class="st"/>
      <path d="M108 490 L300 594" fill="none" class="st"/>
    </g>

    <!-- Right rack frame -->
    <g>
      <!-- Uprights -->
      <rect x="900" y="160" width="18" height="440" fill="#CBD5E1" class="st"/>
      <rect x="1112" y="160" width="18" height="440" fill="#CBD5E1" class="st"/>
      <!-- Beams -->
      <rect x="918" y="200" width="194" height="14" fill="#E5E7EB" class="st"/>
      <rect x="918" y="330" width="194" height="14" fill="#E5E7EB" class="st"/>
      <rect x="918" y="460" width="194" height="14" fill="#E5E7EB" class="st"/>
      <!-- Diagonals -->
      <path d="M918 210 L1112 324" fill="none" class="st"/>
      <path d="M918 340 L1112 454" fill="none" class="st"/>
      <path d="M918 470 L1112 584" fill="none" class="st"/>
    </g>
  </g>

  <!-- Pallets -->
  <g id="pallets">
    <!-- Floor pallets center-left -->
    <g>
      <rect x="420" y="570" width="140" height="36" rx="4" fill="#E5E7EB" class="st"/>
      <rect x="430" y="576" width="120" height="8" fill="#CBD5E1" class="st"/>
      <rect x="430" y="590" width="120" height="8" fill="#CBD5E1" class="st"/>
    </g>
    <g>
      <rect x="580" y="570" width="140" height="36" rx="4" fill="#E5E7EB" class="st"/>
      <rect x="590" y="576" width="120" height="8" fill="#CBD5E1" class="st"/>
      <rect x="590" y="590" width="120" height="8" fill="#CBD5E1" class="st"/>
    </g>

    <!-- Pallet on right rack lower beam with a box -->
    <g>
      <rect x="930" y="474" width="170" height="30" rx="4" fill="#E5E7EB" class="st"/>
      <rect x="940" y="478" width="150" height="8" fill="#CBD5E1" class="st"/>
      <rect x="940" y="490" width="150" height="8" fill="#CBD5E1" class="st"/>
      <!-- Load box (slightly skewed for "unstable" hint) -->
      <polygon points="950,430 1110,430 1100,470 960,470" fill="#E5E7EB" class="st"/>
    </g>
  </g>

  <!-- Floor markings -->
  <g id="floor-markings">
    <!-- Pedestrian walkway -->
    <rect x="320" y="560" width="280" height="90" fill="#E5E7EB" opacity="0.65" class="st"/>
    <!-- Zebra stripes -->
    <rect x="330" y="565" width="30" height="80" fill="#FFFFFF" class="st"/>
    <rect x="370" y="565" width="30" height="80" fill="#FFFFFF" class="st"/>
    <rect x="410" y="565" width="30" height="80" fill="#FFFFFF" class="st"/>
    <rect x="450" y="565" width="30" height="80" fill="#FFFFFF" class="st"/>
    <rect x="490" y="565" width="30" height="80" fill="#FFFFFF" class="st"/>
    <rect x="530" y="565" width="30" height="80" fill="#FFFFFF" class="st"/>
    <rect x="570" y="565" width="30" height="80" fill="#FFFFFF" class="st"/>
    <!-- Aisle center line -->
    <line x1="80" y1="640" x2="1120" y2="640" stroke="#CBD5E1" class="st"/>
  </g>

  <!-- Pedestrian silhouette (with PPE vest) -->
  <g id="pedestrian">
    <!-- Shadow -->
    <ellipse cx="380" cy="625" rx="34" ry="10" fill="#0F172A" fill-opacity="0.08"/>
    <!-- Body -->
    <circle cx="380" cy="570" r="16" fill="#E5E7EB" class="st"/>
    <path d="M360 620 Q380 600 400 620" fill="#E5E7EB" class="st"/>
    <rect x="366" y="586" width="28" height="36" rx="6" fill="#E5E7EB" class="st"/>
    <!-- Arms/legs -->
    <path d="M366 596 L352 610" fill="none" class="st"/>
    <path d="M394 596 L408 610" fill="none" class="st"/>
    <path d="M374 622 L366 644" fill="none" class="st"/>
    <path d="M390 622 L398 644" fill="none" class="st"/>
    <!-- Hi-vis vest (accent) -->
    <rect x="368" y="590" width="24" height="28" rx="4" fill="#F76511" fill-opacity="0.9" stroke="#F76511" class="st"/>
    <line x1="368" y1="602" x2="392" y2="602" stroke="#E5E7EB" />
  </g>

  <!-- Hazard: Spill (subtle orange) -->
  <g id="hazard-spill">
    <!-- Puddle -->
    <path d="M690 640 C720 632, 760 636, 790 644 C810 650, 806 664, 774 668 C744 672, 706 666, 690 656 Z" fill="#F76511" fill-opacity="0.10" stroke="#F76511" class="st"/>
  </g>

  <!-- Hazard: Pedestrian crossing emphasis -->
  <g id="hazard-pedestrian">
    <ellipse cx="460" cy="605" rx="170" ry="60" fill="#F76511" fill-opacity="0.07" stroke="#F76511" class="st"/>
  </g>

  <!-- Hazard: Overhead obstruction near right rack upper beam -->
  <g id="hazard-overhead">
    <rect x="918" y="190" width="194" height="16" fill="#F76511" fill-opacity="0.08" stroke="#F76511" class="st"/>
    <path d="M1015 210 C1000 230, 1030 230, 1015 250" fill="none" stroke="#F76511" stroke-dasharray="8 8" class="st"/>
  </g>

  <!-- Hazard: Unstable load on right rack -->
  <g id="hazard-unstable-load">
    <polygon points="952,428 1112,428 1102,468 962,468" fill="none" stroke="#F76511" stroke-dasharray="8 8" class="st"/>
    <ellipse cx="1032" cy="450" rx="110" ry="46" fill="#F76511" fill-opacity="0.06" stroke="#F76511" class="st"/>
  </g>

  <!-- Hazard: Speed zone (aisle area) -->
  <g id="hazard-speed-zone">
    <rect x="620" y="610" width="360" height="70" rx="10" fill="#F76511" fill-opacity="0.06" stroke="#F76511" stroke-dasharray="10 10" class="st"/>
  </g>
</svg>
